<?xml version="1.0" encoding="utf-8"?>
<svg xmlns="http://www.w3.org/2000/svg" height="32" width="32" viewBox="0 0 32 32">
  <g>
    <path id="path1" transform="rotate(0,16,16) translate(0,9.5367431640625E-07) scale(1,1)  " fill="#91E1E1" d="M16,12.899996C17.699997,12.899996 19.099998,14.299997 19.099998,16.000001 19.099998,17.699998 17.699997,19.1 16,19.1 14.299995,19.1 12.900002,17.699998 12.900002,16.000001 12.900002,14.299997 14.299995,12.899996 16,12.899996z M16,9.1000014C12.199997,9.1000014 9.0999985,12.199999 9.0999985,16.000001 9.0999985,19.799996 12.199997,22.899995 16,22.899995 19.799995,22.899995 22.900002,19.799996 22.900002,16.000001 22.900002,12.199999 19.799995,9.1000014 16,9.1000014z M16,6.7999984C21.099998,6.7999984 25.199997,10.899996 25.199997,16.000001 25.199997,21.1 21.099998,25.199998 16,25.199998 10.900002,25.199998 6.7999954,21.1 6.7999954,16.000001 6.7999954,10.899996 10.900002,6.7999984 16,6.7999984z M16,3.9000011C9.2999954,3.9000009 3.8999977,9.2999984 3.8999977,16.000001 3.8999977,22.699998 9.2999954,28.1 16,28.1 22.699997,28.1 28.099998,22.699998 28.099998,16.000001 28.099998,9.2999984 22.699997,3.9000009 16,3.9000011z M16,0C24.799995,-9.122482E-08 32,7.1999999 32,16.000001 32,24.799996 24.799995,31.999999 16,31.999999 7.1999969,31.999999 0,24.799996 0,16.000001 0,7.1999999 7.1999969,-9.122482E-08 16,0z" />
  </g>
</svg>

